<?xml version="1.0" standalone="no"?>
<!DOCTYPE svg PUBLIC "-//W3C//DTD SVG 20010904//EN"
 "http://www.w3.org/TR/2001/REC-SVG-20010904/DTD/svg10.dtd">
<svg version="1.0" xmlns="http://www.w3.org/2000/svg"
 width="96.000000pt" height="96.000000pt" viewBox="0 0 96.000000 96.000000"
 preserveAspectRatio="xMidYMid meet">

<g transform="translate(0.000000,96.000000) scale(0.100000,-0.100000)"
fill="#000000" stroke="none">
<path d="M443 883 c-7 -2 -20 -28 -28 -57 -9 -29 -22 -61 -29 -71 -19 -26 -75
-24 -114 4 -39 27 -85 25 -91 -3 -2 -11 9 -43 24 -71 45 -82 28 -114 -74 -139
-36 -9 -47 -16 -49 -34 -5 -33 13 -49 60 -57 48 -8 88 -44 88 -78 0 -13 -11
-41 -26 -62 -31 -46 -29 -89 3 -93 12 -2 43 9 69 24 39 23 46 25 41 11 -4 -12
-3 -16 4 -11 7 4 9 0 5 -13 -8 -24 15 -46 41 -41 9 2 20 14 24 28 l6 25 7 -30
c16 -63 23 -79 39 -89 25 -16 50 4 61 47 10 40 22 48 51 35 18 -8 18 -8 -2 -4
-13 2 -23 0 -23 -5 0 -15 38 -10 55 8 10 9 15 26 12 40 -5 29 -4 29 50 -3 24
-14 54 -24 66 -22 33 5 34 49 3 95 -14 21 -26 48 -26 61 0 33 40 69 88 77 47
8 65 24 60 57 -2 18 -13 25 -49 34 -102 25 -119 57 -74 139 15 28 26 60 24 71
-6 27 -52 30 -87 6 -77 -55 -128 -29 -148 72 -5 30 -30 59 -46 55 -2 0 -9 -3
-15 -6z m34 -25 c6 -7 14 -30 17 -52 9 -50 46 -86 87 -86 17 0 53 12 80 27 37
21 51 25 60 16 9 -9 5 -22 -15 -57 -50 -86 -24 -158 63 -172 45 -7 71 -28 54
-45 -6 -6 -30 -15 -54 -20 -90 -21 -116 -89 -63 -169 42 -64 18 -77 -65 -34
-38 20 -51 33 -51 49 0 35 12 37 44 8 l31 -28 -26 29 -27 28 24 36 c13 19 27
52 30 74 6 36 9 38 43 40 l36 1 -38 4 c-33 4 -38 7 -34 24 3 10 1 19 -4 19 -5
0 -9 9 -9 19 0 11 -5 23 -11 26 -6 4 -8 14 -5 22 3 8 1 11 -4 8 -17 -11 -11
37 8 59 16 20 16 20 -2 6 -22 -18 -58 -15 -106 8 -19 9 -43 15 -52 13 -14 -2
-18 5 -18 34 0 22 -4 34 -10 30 -5 -3 -10 -20 -10 -36 0 -23 -4 -30 -17 -28
-10 2 -36 -6 -58 -16 -49 -22 -78 -23 -102 -5 -17 14 -17 14 -2 -5 11 -13 14
-27 9 -40 -4 -11 -5 -25 -3 -31 2 -7 0 -15 -6 -19 -6 -3 -11 -15 -11 -26 0
-10 -4 -19 -9 -19 -5 0 -7 -9 -4 -20 5 -17 0 -20 -33 -22 l-39 -1 36 -4 c34
-4 37 -7 43 -42 3 -21 17 -54 30 -73 l24 -36 -27 -28 -26 -29 31 29 c30 26 33
27 43 9 9 -15 10 -15 11 -2 0 9 14 33 30 54 34 42 39 56 12 32 -16 -15 -18
-15 -18 3 0 10 3 17 7 14 4 -2 13 4 20 14 13 15 12 16 -3 3 -12 -8 -18 -9 -18
-2 0 30 100 52 140 31 16 -8 18 -8 14 5 -3 8 -11 12 -16 9 -6 -4 -8 6 -4 27 5
34 5 34 -6 7 -9 -21 -19 -28 -40 -28 -19 0 -26 4 -22 14 3 8 1 17 -5 21 -6 3
-11 -2 -11 -13 0 -19 -47 -59 -62 -54 -5 1 -8 -2 -8 -8 0 -5 -7 -6 -17 -3 -11
4 -14 3 -9 -6 5 -7 13 -10 20 -8 12 5 13 -46 1 -76 -10 -23 -29 -7 -57 47 -16
31 -19 53 -16 103 5 79 20 98 66 82 31 -11 31 -11 12 -32 -11 -11 -18 -23 -15
-26 3 -2 12 4 19 15 14 18 15 18 21 2 4 -10 11 -18 16 -18 6 0 5 10 -2 22 -9
18 -9 20 4 15 8 -3 23 0 32 7 26 19 11 48 -32 67 l-38 16 30 13 c38 16 111 16
150 0 l30 -12 -42 -19 c-28 -12 -43 -24 -43 -37 0 -24 19 -42 38 -35 9 4 13 2
9 -3 -4 -7 6 -8 26 -5 29 5 30 6 7 9 -23 4 -23 5 9 18 48 20 58 18 70 -17 25
-72 4 -179 -43 -218 -12 -10 -17 -9 -25 8 -21 38 -13 83 22 121 l32 35 -32
-29 c-29 -26 -33 -28 -33 -10 -1 19 -1 19 -15 0 -8 -10 -12 -23 -9 -27 3 -5 1
-9 -5 -9 -5 0 -13 5 -16 10 -3 6 -14 10 -23 9 -14 0 -13 -2 3 -8 24 -10 57
-45 53 -57 -1 -5 5 -22 14 -39 9 -16 17 -57 19 -90 4 -55 2 -60 -16 -57 -11 2
-22 8 -23 13 -2 5 -7 7 -12 4 -4 -3 -6 4 -3 15 3 11 -4 30 -16 46 -15 19 -18
30 -11 40 7 7 7 15 2 18 -19 12 -20 -34 -1 -58 16 -21 17 -25 3 -30 -8 -3 -13
-2 -10 3 14 23 -56 28 -74 6 -11 -13 -15 -13 -21 -3 -6 9 -11 2 -15 -20 -5
-26 -11 -33 -25 -29 -26 7 -24 -2 4 -13 22 -10 22 -10 -2 -7 -22 2 -25 7 -27
50 -1 43 -13 81 -14 46 -1 -14 -83 -60 -107 -59 -25 0 -24 23 2 62 51 76 25
151 -57 164 -21 4 -45 12 -55 19 -15 11 -15 15 -4 29 7 9 22 16 33 16 33 0 86
27 99 51 18 34 13 73 -15 121 -18 30 -22 48 -16 58 8 13 17 11 59 -12 27 -16
63 -28 80 -28 41 0 78 36 87 86 7 39 20 64 34 64 4 0 12 -6 17 -12z m-2 -588
c-3 -5 -12 -10 -18 -10 -7 0 -6 4 3 10 19 12 23 12 15 0z m13 -44 c-2 -21 -5
-23 -18 -13 -25 19 -26 20 -7 14 9 -4 17 -2 17 3 0 5 -10 11 -22 13 -20 4 -19
4 4 6 24 1 27 -3 26 -23z m2 -49 c0 -7 -7 -22 -15 -33 -15 -19 -15 -19 -30 0
-23 31 -18 46 15 46 18 0 30 -5 30 -13z"/>
<path d="M300 534 c0 -7 7 -25 15 -40 8 -16 15 -24 15 -18 0 7 -7 25 -15 40
-8 16 -15 24 -15 18z"/>
<path d="M448 473 c7 -3 16 -2 19 1 4 3 -2 6 -13 5 -11 0 -14 -3 -6 -6z"/>
<path d="M397 388 c-3 -9 -1 -19 6 -21 8 -3 3 -14 -13 -33 -22 -25 -22 -26 -2
-10 27 23 41 13 23 -17 -12 -21 -12 -21 4 -5 16 15 12 16 -3 3 -12 -8 -18 -9 -18
-2 0 30 100 52 140 31 16 -8 18 -8 14 5 -3 8 -11 12 -16 9 -6 -4 -8 6 -4 27 5
34 5 34 -6 7 -9 -21 -19 -28 -40 -28 -19 0 -26 4 -22 14 3 8 1 17 -5 21 -6 3
-11 -2 -11 -13 0 -19 -47 -59 -62 -54 -5 1 -8 -2 -8 -8 0 -5 -7 -6 -17 -3 -11
4 -14 3 -9 -6 5 -7 13 -10 20 -8 12 5 13 -46 1 -76 -10 -23 -29 -7 -57 47 -16
31 -19 53 -16 103 5 79 20 98 66 82 31 -11 31 -11 12 -32 -11 -11 -18 -23 -15
-26 3 -2 12 4 19 15 14 18 15 18 21 2 4 -10 11 -18 16 -18 6 0 5 10 -2 22 -9
18 -9 20 4 15 8 -3 23 0 32 7 26 19 11 48 -32 67 l-38 16 30 13 c38 16 111 16
150 0 l30 -12 -42 -19 c-28 -12 -43 -24 -43 -37 0 -24 19 -42 38 -35 9 4 13 2
9 -3 -4 -7 6 -8 26 -5 29 5 30 6 7 9 -23 4 -23 5 9 18 48 20 58 18 70 -17 25
-72 4 -179 -43 -218 -12 -10 -17 -9 -25 8 -21 38 -13 83 22 121 l32 35 -32
-29 c-29 -26 -33 -28 -33 -10 -1 19 -1 19 -15 0 -8 -10 -12 -23 -9 -27 3 -5 1
-9 -5 -9 -5 0 -13 5 -16 10 -3 6 -14 10 -23 9 -14 0 -13 -2 3 -8 24 -10 57
-45 53 -57 -1 -5 5 -22 14 -39 9 -16 17 -57 19 -90 4 -55 2 -60 -16 -57 -11 2
-22 8 -23 13 -2 5 -7 7 -12 4 -4 -3 -6 4 -3 15 3 11 -4 30 -16 46 -15 19 -18
30 -11 40 7 7 7 15 2 18 -19 12 -20 -34 -1 -58 16 -21 17 -25 3 -30 -8 -3 -13
-2 -10 3 14 23 -56 28 -74 6 -11 -13 -15 -13 -21 -3 -6 9 -11 2 -15 -20 -5
-26 -11 -33 -25 -29 -26 7 -24 -2 4 -13 22 -10 22 -10 -2 -7 -22 2 -25 7 -27
50 -1 43 -13 81 -14 46 -1 -14 -83 -60 -107 -59 -25 0 -24 23 2 62 51 76 25
151 -57 164 -21 4 -45 12 -55 19 -15 11 -15 15 -4 29 7 9 22 16 33 16 33 0 86
27 99 51 18 34 13 73 -15 121 -18 30 -22 48 -16 58 8 13 17 11 59 -12 27 -16
63 -28 80 -28 41 0 78 36 87 86 7 39 20 64 34 64 4 0 12 -6 17 -12z"/>
</g>
</svg>


